<?xml version="1.0" encoding="UTF-8"?>
<svg id="Layer_2" data-name="Layer 2" xmlns="http://www.w3.org/2000/svg" viewBox="0 0 79.12 98.44">
  <defs>
    <style>
      .cls-1 {
        fill: #ff6764;
      }
    </style>
  </defs>
  <g id="Layer_1-2" data-name="Layer 1">
    <g>
      <path class="cls-1" d="M13.7,41.84v-.07s-.07.05,0,.07Z"/>
      <path class="cls-1" d="M13.7,41.7h0v.07s.06-.05,0-.07Z"/>
      <path class="cls-1" d="M47.86,35.94c-.5,0-1.04.02-1.65.05l.02,11.67c5.46,1.09,9.57,5.9,9.57,11.67s-4,10.44-9.34,11.62c-1.72,0-3.12-1.41-3.12-3.13l-.02-45.6v-1.53C42.83,9.09,33.32,0,21.67,0S0,9.72,0,21.67c0,8.7,5.53,16.95,13.7,20.03v-24.86c0-.47.53-1.18,1.42-1.18.81-.01,1.51.72,1.51,1.18v49.5c-.02.28-.03.57-.03.85,0,17.23,14.02,31.25,31.25,31.25s31.25-14.02,31.25-31.25-14.02-31.25-31.25-31.25Z"/>
    </g>
  </g>
</svg>