<?xml version="1.0" encoding="UTF-8"?>
<svg id="Layer_2" data-name="Layer 2" xmlns="http://www.w3.org/2000/svg" viewBox="0 0 337.3 98.44">
  <defs>
    <style>
      .cls-1 {
        fill: #fff;
      }

      .cls-2 {
        fill: #ff6764;
      }
    </style>
  </defs>
  <g id="Layer_1-2" data-name="Layer 1">
    <path class="cls-1" d="M115.9,43.53c1.88,0,3.64.31,5.29.93,1.64.62,3.06,1.54,4.27,2.76,1.2,1.22,2.14,2.76,2.82,4.63.68,1.86,1.02,4.04,1.02,6.52s-.35,4.73-1.05,6.61c-.7,1.88-1.69,3.44-2.97,4.66-1.28,1.22-2.81,2.14-4.6,2.76-1.78.62-3.76.93-5.92.93s-4.08-.26-5.74-.78c-1.66-.52-3.02-1.12-4.06-1.8-.84-.56-1.44-1.12-1.8-1.68-.36-.56-.54-1.28-.54-2.16v-33.41c.28-.08.68-.18,1.2-.3.52-.12,1.08-.18,1.68-.18,1.16,0,2.01.22,2.55.66.54.44.81,1.18.81,2.22v9.49c.88-.48,1.9-.91,3.06-1.29,1.16-.38,2.48-.57,3.97-.57ZM114.88,48.58c-1.28,0-2.42.21-3.42.63-1,.42-1.86.91-2.58,1.47v15.98c.56.4,1.34.76,2.34,1.08,1,.32,2.16.48,3.49.48,2.44,0,4.43-.8,5.95-2.4,1.52-1.6,2.28-4.09,2.28-7.45s-.75-5.89-2.25-7.45c-1.5-1.56-3.44-2.34-5.8-2.34Z"/>
    <path class="cls-1" d="M134.61,35.72c0-1.04.36-1.91,1.08-2.61.72-.7,1.64-1.05,2.76-1.05s2.02.35,2.7,1.05c.68.7,1.02,1.57,1.02,2.61s-.34,1.91-1.02,2.61c-.68.7-1.58,1.05-2.7,1.05s-2.04-.35-2.76-1.05c-.72-.7-1.08-1.57-1.08-2.61ZM141.58,72.38c-.28.12-.67.23-1.17.33-.5.1-1.07.15-1.71.15-1.16,0-2.02-.22-2.58-.66-.56-.44-.84-1.18-.84-2.22v-25.42c.32-.08.73-.18,1.23-.3.5-.12,1.07-.18,1.71-.18,1.16,0,2.01.22,2.55.66.54.44.81,1.2.81,2.28v25.36Z"/>
    <path class="cls-1" d="M155.95,67.33c.84.6,2.02.9,3.55.9.68,0,1.4-.1,2.16-.3.76-.2,1.42-.44,1.98-.72.28.32.53.68.75,1.08.22.4.33.88.33,1.44,0,1.04-.53,1.9-1.59,2.58-1.06.68-2.67,1.02-4.84,1.02-3,0-5.4-.67-7.18-2.01-1.78-1.34-2.67-3.56-2.67-6.64v-28.06c.28-.08.68-.18,1.2-.3.52-.12,1.08-.18,1.68-.18,1.16,0,2.01.22,2.55.66.54.44.81,1.18.81,2.22v9.63h9.31c.16.24.31.58.45,1.02.14.44.21.9.21,1.38,0,1.72-.74,2.58-2.22,2.58h-7.75v10.62c0,1.44.42,2.46,1.26,3.06Z"/>
    <path class="cls-1" d="M194.64,35.75c.56-.1,1.14-.15,1.74-.15,1.16,0,2.03.22,2.61.66.58.44.87,1.22.87,2.34v33.77c-.32.12-.75.23-1.29.33-.54.1-1.11.15-1.71.15-1.24,0-2.13-.23-2.67-.69-.54-.46-.81-1.23-.81-2.31v-15.96h-16.77v18.48c-.32.12-.74.23-1.26.33-.52.1-1.1.15-1.74.15-1.24,0-2.13-.23-2.67-.69-.54-.46-.81-1.23-.81-2.31v-33.83c.32-.08.75-.17,1.29-.27.54-.1,1.11-.15,1.71-.15,1.16,0,2.03.22,2.61.66.58.44.87,1.22.87,2.34v10.06h16.77v-12.64c.28-.08.7-.17,1.26-.27Z"/>
    <path class="cls-1" d="M205.94,44.44c.28-.08.68-.17,1.2-.27.52-.1,1.08-.15,1.68-.15,1.16,0,2.01.22,2.55.66.54.44.81,1.2.81,2.28v14.84c0,2.32.61,3.98,1.83,4.96,1.22.98,2.91,1.47,5.08,1.47,1.4,0,2.58-.14,3.55-.42.96-.28,1.72-.58,2.28-.9v-22.47c.32-.08.73-.17,1.23-.27.5-.1,1.05-.15,1.65-.15,1.16,0,2.02.22,2.58.66.56.44.84,1.2.84,2.28v20.25c0,.88-.14,1.6-.42,2.16-.28.56-.84,1.1-1.68,1.62-1.04.6-2.41,1.14-4.12,1.62-1.7.48-3.7.72-5.98.72-4.13,0-7.34-.91-9.64-2.73-2.3-1.82-3.46-4.72-3.46-8.68v-17.49Z"/>
    <path class="cls-1" d="M271.23,49.81c-.98-.82-2.31-1.23-4-1.23-1.12,0-2.19.21-3.21.63-1.02.42-1.95.99-2.79,1.71.08.32.14.66.18,1.02.04.36.06.72.06,1.08v19.35c-.28.12-.68.23-1.2.33-.52.1-1.06.15-1.62.15-1.16,0-2.02-.22-2.58-.66-.56-.44-.84-1.18-.84-2.22v-16.28c0-1.76-.5-3.05-1.5-3.88-1-.82-2.34-1.23-4.03-1.23-1.12,0-2.18.18-3.18.54-1,.36-1.84.76-2.52,1.2v22.05c-.28.12-.67.23-1.17.33-.5.1-1.05.15-1.65.15-1.16,0-2.02-.22-2.58-.66-.56-.44-.84-1.18-.84-2.22v-19.83c0-.92.18-1.66.54-2.22.36-.56.96-1.12,1.8-1.68,1.16-.76,2.62-1.4,4.39-1.92,1.76-.52,3.55-.78,5.35-.78s3.58.26,5.08.78c1.5.52,2.73,1.28,3.7,2.28,1.12-.88,2.45-1.61,4-2.19,1.54-.58,3.34-.87,5.38-.87,1.56,0,3.02.19,4.39.57,1.36.38,2.53.98,3.52,1.8.98.82,1.75,1.85,2.31,3.09.56,1.24.84,2.72.84,4.45v18.93c-.32.12-.73.23-1.23.33-.5.1-1.05.15-1.65.15-1.16,0-2.02-.22-2.58-.66-.56-.44-.84-1.18-.84-2.22v-16.28c0-1.76-.49-3.05-1.47-3.88Z"/>
    <path class="cls-1" d="M294.76,43.53c3.73,0,6.69.81,8.89,2.43,2.2,1.62,3.3,4.18,3.3,7.66v14c0,.92-.21,1.63-.63,2.13-.42.5-.99.97-1.71,1.41-1.04.6-2.38,1.12-4.03,1.56-1.64.44-3.55.66-5.71.66-3.89,0-6.92-.76-9.1-2.28-2.18-1.52-3.28-3.77-3.28-6.73,0-2.64.85-4.67,2.55-6.07,1.7-1.4,4.16-2.26,7.36-2.58l8.35-.84v-1.32c0-1.76-.57-3.04-1.71-3.85-1.14-.8-2.73-1.2-4.78-1.2-1.6,0-3.15.22-4.63.66-1.48.44-2.8.94-3.97,1.5-.4-.32-.74-.71-1.02-1.17-.28-.46-.42-.97-.42-1.53,0-.68.17-1.24.51-1.68.34-.44.87-.82,1.59-1.14,1.12-.56,2.4-.97,3.85-1.23,1.44-.26,2.96-.39,4.57-.39ZM294.88,68.47c1.4,0,2.62-.14,3.67-.42,1.04-.28,1.78-.58,2.22-.9v-7.63l-6.55.66c-1.84.2-3.23.61-4.15,1.23-.92.62-1.38,1.57-1.38,2.85s.5,2.35,1.5,3.09c1,.74,2.56,1.11,4.69,1.11Z"/>
    <path class="cls-1" d="M329.34,49.96c-1.1-.92-2.59-1.38-4.48-1.38-1.4,0-2.65.18-3.76.54-1.1.36-2.05.76-2.85,1.2v22.05c-.28.12-.67.23-1.17.33-.5.1-1.05.15-1.65.15-1.16,0-2.02-.22-2.58-.66-.56-.44-.84-1.18-.84-2.22v-19.83c0-.92.18-1.66.54-2.22.36-.56.96-1.12,1.8-1.68,1.12-.68,2.58-1.3,4.39-1.86,1.8-.56,3.85-.84,6.13-.84,3.89,0,6.93.87,9.13,2.61,2.2,1.74,3.3,4.38,3.3,7.9v18.33c-.28.12-.68.23-1.2.33-.52.1-1.08.15-1.68.15-1.16,0-2.02-.22-2.58-.66-.56-.44-.84-1.18-.84-2.22v-15.68c0-1.96-.55-3.4-1.65-4.33Z"/>
    <g>
      <path class="cls-2" d="M13.7,41.84v-.07s-.07.05,0,.07Z"/>
      <path class="cls-2" d="M13.7,41.7h0v.07s.06-.05,0-.07Z"/>
      <path class="cls-2" d="M47.86,35.94c-.5,0-1.04.02-1.65.05l.02,11.67c5.46,1.09,9.57,5.9,9.57,11.67s-4,10.44-9.34,11.62c-1.72,0-3.12-1.41-3.12-3.13l-.02-45.6v-1.53C42.83,9.09,33.32,0,21.67,0S0,9.72,0,21.67c0,8.7,5.53,16.95,13.7,20.03v-24.86c0-.47.53-1.18,1.42-1.18.81-.01,1.51.72,1.51,1.18v49.5c-.02.28-.03.57-.03.85,0,17.23,14.02,31.25,31.25,31.25s31.25-14.02,31.25-31.25-14.02-31.25-31.25-31.25Z"/>
    </g>
  </g>
</svg>